<svg width="7" height="7" viewBox="0 0 7 7" fill="none" xmlns="http://www.w3.org/2000/svg">
<path d="M6.98102 2.51301C6.95903 2.44822 6.91854 2.39129 6.86456 2.34925C6.81058 2.30721 6.74547 2.2819 6.67726 2.27644L4.68218 2.11791L3.81884 0.206811C3.79135 0.145259 3.74663 0.0929789 3.69007 0.0562813C3.63352 0.0195838 3.56756 3.70527e-05 3.50015 5.26255e-08C3.43273 -3.69475e-05 3.36675 0.0194374 3.31016 0.0560728C3.25357 0.0927083 3.20879 0.144939 3.18123 0.206461L2.31789 2.11791L0.322805 2.27644C0.255773 2.28175 0.19169 2.30626 0.138223 2.34703C0.0847565 2.38781 0.0441692 2.44313 0.0213173 2.50637C-0.00153458 2.56961 -0.00568348 2.63809 0.00936703 2.70363C0.0244175 2.76916 0.0580301 2.82897 0.106184 2.87591L1.58054 4.31317L1.05911 6.57107C1.04327 6.63941 1.04835 6.71094 1.07367 6.77637C1.099 6.84179 1.1434 6.8981 1.20112 6.93797C1.25884 6.97785 1.32721 6.99946 1.39737 6.99999C1.46752 7.00052 1.53621 6.97996 1.59454 6.94097L3.50003 5.67064L5.40553 6.94097C5.46514 6.98055 5.53544 7.00092 5.60698 6.99935C5.67851 6.99778 5.74785 6.97435 5.80567 6.93219C5.86348 6.89004 5.90701 6.83119 5.93038 6.76357C5.95375 6.69594 5.95586 6.62278 5.93641 6.55392L5.29635 4.31422L6.88374 2.88571C6.98767 2.79192 7.02582 2.64564 6.98102 2.51301V2.51301Z" fill="#3072B4"/>
</svg>
